<svg xmlns="http://www.w3.org/2000/svg" viewBox="0 0 1600 1000"><rect width="1600" height="1000" fill="#15171b"/><text x="80" y="90" fill="#828894" font-family="Arial,sans-serif" font-size="18" letter-spacing="2">02 / PERSONAL WORKSPACE</text><text x="80" y="150" fill="#f5f5f5" font-family="Arial,sans-serif" font-size="48" font-weight="700">One view for goals, tasks and assigned requests.</text><g transform="translate(80 216)"><rect width="1440" height="696" rx="26" fill="#1d2026" stroke="#30343d"/><text x="38" y="58" fill="#f5f5f5" font-family="Arial,sans-serif" font-size="28" font-weight="700">My Workspace</text><text x="38" y="88" fill="#858b96" font-family="Arial,sans-serif" font-size="15">Personal operating dashboard</text><g transform="translate(38 126)"><rect width="320" height="190" rx="18" fill="#242831"/><text x="24" y="36" fill="#8d939e" font-family="Arial,sans-serif" font-size="13" letter-spacing="1.5">TODAY</text><text x="24" y="79" fill="#f5f5f5" font-family="Arial,sans-serif" font-size="30" font-weight="700">04 schedules</text><line x1="24" y1="106" x2="296" y2="106" stroke="#353a44"/><text x="24" y="140" fill="#c3c7ce" font-family="Arial,sans-serif" font-size="14">10:30  Client meeting</text><text x="24" y="166" fill="#c3c7ce" font-family="Arial,sans-serif" font-size="14">15:00  Design review</text></g><g transform="translate(378 126)"><rect width="320" height="190" rx="18" fill="#242831"/><text x="24" y="36" fill="#8d939e" font-family="Arial,sans-serif" font-size="13" letter-spacing="1.5">IN PROGRESS</text><text x="24" y="79" fill="#f5f5f5" font-family="Arial,sans-serif" font-size="30" font-weight="700">07 tasks</text><line x1="24" y1="106" x2="296" y2="106" stroke="#353a44"/><rect x="24" y="130" width="178" height="8" rx="4" fill="#3c424e"/><rect x="24" y="130" width="112" height="8" rx="4" fill="#8b929e"/><text x="24" y="166" fill="#c3c7ce" font-family="Arial,sans-serif" font-size="14">Weekly completion 63%</text></g><g transform="translate(718 126)"><rect width="320" height="190" rx="18" fill="#242831"/><text x="24" y="36" fill="#8d939e" font-family="Arial,sans-serif" font-size="13" letter-spacing="1.5">ASSIGNED REQUESTS</text><text x="24" y="79" fill="#f5f5f5" font-family="Arial,sans-serif" font-size="30" font-weight="700">03 requests</text><line x1="24" y1="106" x2="296" y2="106" stroke="#353a44"/><text x="24" y="140" fill="#c3c7ce" font-family="Arial,sans-serif" font-size="14">Awaiting schedule  02</text><text x="24" y="166" fill="#c3c7ce" font-family="Arial,sans-serif" font-size="14">Review required   01</text></g><g transform="translate(1058 126)"><rect width="306" height="190" rx="18" fill="#242831"/><text x="24" y="36" fill="#8d939e" font-family="Arial,sans-serif" font-size="13" letter-spacing="1.5">GOAL DATE</text><text x="24" y="79" fill="#f5f5f5" font-family="Arial,sans-serif" font-size="30" font-weight="700">Aug 31</text><line x1="24" y1="106" x2="282" y2="106" stroke="#353a44"/><text x="24" y="140" fill="#c3c7ce" font-family="Arial,sans-serif" font-size="14">Monthly release target</text><text x="24" y="166" fill="#7f8691" font-family="Arial,sans-serif" font-size="14">6 days remaining</text></g><g transform="translate(38 344)"><rect width="654" height="300" rx="18" fill="#20242b"/><text x="24" y="42" fill="#f5f5f5" font-family="Arial,sans-serif" font-size="20" font-weight="700">To do</text><g font-family="Arial,sans-serif" font-size="15"><circle cx="34" cy="92" r="9" fill="none" stroke="#6f7682"/><text x="58" y="98" fill="#d4d7dc">Proposal update and send</text><circle cx="34" cy="142" r="9" fill="none" stroke="#6f7682"/><text x="58" y="148" fill="#d4d7dc">Package proof review</text><circle cx="34" cy="192" r="9" fill="none" stroke="#6f7682"/><text x="58" y="198" fill="#d4d7dc">CRM request classification</text><circle cx="34" cy="242" r="9" fill="none" stroke="#6f7682"/><text x="58" y="248" fill="#d4d7dc">Website QA checklist</text></g></g><g transform="translate(712 344)"><rect width="652" height="300" rx="18" fill="#20242b"/><text x="24" y="42" fill="#f5f5f5" font-family="Arial,sans-serif" font-size="20" font-weight="700">Recent work</text><g font-family="Arial,sans-serif" font-size="14" fill="#d4d7dc"><rect x="24" y="72" width="604" height="52" rx="10" fill="#292e37"/><text x="42" y="104">Brand identity · Updated</text><rect x="24" y="136" width="604" height="52" rx="10" fill="#292e37"/><text x="42" y="168">Client request · Scheduled</text><rect x="24" y="200" width="604" height="52" rx="10" fill="#292e37"/><text x="42" y="232">Development QA · Completed</text></g></g></g><text x="80" y="962" fill="#676d78" font-family="Arial,sans-serif" font-size="14">PORTFOLIO UI PREVIEW · Production system access is not linked</text></svg>